{
    "asset" : {
        "generator" : "Khronos glTF Blender I/O v1.0.5",
        "version" : "2.0"
    },
    "scene" : 0,
    "scenes" : [
        {
            "name" : "Scene",
            "nodes" : [
                0,
                1,
                7
            ]
        }
    ],
    "nodes" : [
        {
            "name" : "Light",
            "rotation" : [
                0.16907575726509094,
                0.7558803558349609,
                -0.27217137813568115,
                0.570947527885437
            ],
            "translation" : [
                4.076245307922363,
                5.903861999511719,
                -1.0054539442062378
            ]
        },
        {
            "name" : "Camera",
            "rotation" : [
                0.483536034822464,
                0.33687159419059753,
                -0.20870360732078552,
                0.7804827094078064
            ],
            "translation" : [
                7.358891487121582,
                4.958309173583984,
                6.925790786743164
            ]
        },
        {
            "name" : "Effect",
            "translation" : [
                0,
                1.5025601387023926,
                3.9596800804138184
            ]
        },
        {
            "children" : [
                2
            ],
            "name" : "Have",
            "rotation" : [
                1,
                0,
                0,
                2.1855694143368964e-08
            ],
            "translation" : [
                0,
                0,
                3.9596800804138184
            ]
        },
        {
            "mesh" : 0,
            "name" : "groupShape1.003",
            "skin" : 0
        },
        {
            "mesh" : 1,
            "name" : "groupShape1.004",
            "skin" : 0
        },
        {
            "mesh" : 2,
            "name" : "groupShape1.005",
            "skin" : 0
        },
        {
            "children" : [
                4,
                5,
                6,
                3
            ],
            "name" : "Armature.001",
            "rotation" : [
                0.7071067094802856,
                0,
                -0.7071068286895752,
                -3.0908616110991716e-08
            ],
            "scale" : [
                0.02539999969303608,
                0.02539999969303608,
                0.02539999969303608
            ]
        }
    ],
    "materials" : [
        {
            "doubleSided" : true,
            "name" : "color_mt.001",
            "pbrMetallicRoughness" : {
                "baseColorTexture" : {
                    "index" : 0,
                    "texCoord" : 0
                },
                "metallicFactor" : 1,
                "roughnessFactor" : 0.858578622341156
            }
        },
        {
            "doubleSided" : true,
            "name" : "body_mt.001",
            "pbrMetallicRoughness" : {
                "baseColorTexture" : {
                    "index" : 1,
                    "texCoord" : 0
                },
                "metallicFactor" : 1,
                "roughnessFactor" : 0.858578622341156
            }
        },
        {
            "doubleSided" : true,
            "name" : "bodyemi_mt.001",
            "pbrMetallicRoughness" : {
                "baseColorTexture" : {
                    "index" : 2,
                    "texCoord" : 0
                },
                "metallicFactor" : 1,
                "roughnessFactor" : 0.858578622341156
            }
        }
    ],
    "meshes" : [
        {
            "name" : "Mesh.008",
            "primitives" : [
                {
                    "attributes" : {
                        "POSITION" : 0,
                        "NORMAL" : 1,
                        "TEXCOORD_0" : 2,
                        "COLOR_0" : 3,
                        "JOINTS_0" : 4,
                        "WEIGHTS_0" : 5
                    },
                    "indices" : 6,
                    "material" : 0
                }
            ]
        },
        {
            "name" : "Mesh.006",
            "primitives" : [
                {
                    "attributes" : {
                        "POSITION" : 8,
                        "NORMAL" : 9,
                        "TEXCOORD_0" : 10,
                        "COLOR_0" : 11,
                        "JOINTS_0" : 12,
                        "WEIGHTS_0" : 13
                    },
                    "indices" : 14,
                    "material" : 1
                }
            ]
        },
        {
            "name" : "Mesh.007",
            "primitives" : [
                {
                    "attributes" : {
                        "POSITION" : 15,
                        "NORMAL" : 16,
                        "TEXCOORD_0" : 17,
                        "COLOR_0" : 18,
                        "JOINTS_0" : 19,
                        "WEIGHTS_0" : 20
                    },
                    "indices" : 21,
                    "material" : 2
                }
            ]
        }
    ],
    "textures" : [
        {
            "source" : 0
        },
        {
            "source" : 1
        },
        {
            "source" : 2
        }
    ],
    "images" : [
        {
            "bufferView" : 7,
            "mimeType" : "image/png",
            "name" : "Bitmaptexture-Bitmaptexture"
        },
        {
            "bufferView" : 16,
            "mimeType" : "image/png",
            "name" : "Bitmaptexture-Bitmaptexture"
        },
        {
            "bufferView" : 24,
            "mimeType" : "image/png",
            "name" : "Bitmaptexture-Bitmaptexture"
        }
    ],
    "skins" : [
        {
            "inverseBindMatrices" : 7,
            "joints" : [
                3,
                2
            ],
            "name" : "Armature.001"
        }
    ],
    "accessors" : [
        {
            "bufferView" : 0,
            "componentType" : 5126,
            "count" : 960,
            "max" : [
                0.09903103858232498,
                0.028103582561016083,
                0.09903103858232498
            ],
            "min" : [
                -0.09903103858232498,
                0.010544242337346077,
                -0.09903103858232498
            ],
            "type" : "VEC3"
        },
        {
            "bufferView" : 1,
            "componentType" : 5126,
            "count" : 960,
            "type" : "VEC3"
        },
        {
            "bufferView" : 2,
            "componentType" : 5126,
            "count" : 960,
            "type" : "VEC2"
        },
        {
            "bufferView" : 3,
            "componentType" : 5126,
            "count" : 960,
            "type" : "VEC4"
        },
        {
            "bufferView" : 4,
            "componentType" : 5123,
            "count" : 960,
            "type" : "VEC4"
        },
        {
            "bufferView" : 5,
            "componentType" : 5126,
            "count" : 960,
            "type" : "VEC4"
        },
        {
            "bufferView" : 6,
            "componentType" : 5123,
            "count" : 960,
            "type" : "SCALAR"
        },
        {
            "bufferView" : 8,
            "componentType" : 5126,
            "count" : 2,
            "type" : "MAT4"
        },
        {
            "bufferView" : 9,
            "componentType" : 5126,
            "count" : 3018,
            "max" : [
                0.10060660541057587,
                0.039598606526851654,
                0.10060660541057587
            ],
            "min" : [
                -0.10060660541057587,
                -8.722274458250467e-09,
                -0.10060660541057587
            ],
            "type" : "VEC3"
        },
        {
            "bufferView" : 10,
            "componentType" : 5126,
            "count" : 3018,
            "type" : "VEC3"
        },
        {
            "bufferView" : 11,
            "componentType" : 5126,
            "count" : 3018,
            "type" : "VEC2"
        },
        {
            "bufferView" : 12,
            "componentType" : 5126,
            "count" : 3018,
            "type" : "VEC4"
        },
        {
            "bufferView" : 13,
            "componentType" : 5123,
            "count" : 3018,
            "type" : "VEC4"
        },
        {
            "bufferView" : 14,
            "componentType" : 5126,
            "count" : 3018,
            "type" : "VEC4"
        },
        {
            "bufferView" : 15,
            "componentType" : 5123,
            "count" : 3018,
            "type" : "SCALAR"
        },
        {
            "bufferView" : 17,
            "componentType" : 5126,
            "count" : 120,
            "max" : [
                0.0910249575972557,
                0.024000518023967743,
                0.091025210916996
            ],
            "min" : [
                -0.091025210916996,
                0.014099480584263802,
                -0.0910249575972557
            ],
            "type" : "VEC3"
        },
        {
            "bufferView" : 18,
            "componentType" : 5126,
            "count" : 120,
            "type" : "VEC3"
        },
        {
            "bufferView" : 19,
            "componentType" : 5126,
            "count" : 120,
            "type" : "VEC2"
        },
        {
            "bufferView" : 20,
            "componentType" : 5126,
            "count" : 120,
            "type" : "VEC4"
        },
        {
            "bufferView" : 21,
            "componentType" : 5123,
            "count" : 120,
            "type" : "VEC4"
        },
        {
            "bufferView" : 22,
            "componentType" : 5126,
            "count" : 120,
            "type" : "VEC4"
        },
        {
            "bufferView" : 23,
            "componentType" : 5123,
            "count" : 120,
            "type" : "SCALAR"
        }
    ],
    "bufferViews" : [
        {
            "buffer" : 0,
            "byteLength" : 11520,
            "byteOffset" : 0
        },
        {
            "buffer" : 0,
            "byteLength" : 11520,
            "byteOffset" : 11520
        },
        {
            "buffer" : 0,
            "byteLength" : 7680,
            "byteOffset" : 23040
        },
        {
            "buffer" : 0,
            "byteLength" : 15360,
            "byteOffset" : 30720
        },
        {
            "buffer" : 0,
            "byteLength" : 7680,
            "byteOffset" : 46080
        },
        {
            "buffer" : 0,
            "byteLength" : 15360,
            "byteOffset" : 53760
        },
        {
            "buffer" : 0,
            "byteLength" : 1920,
            "byteOffset" : 69120
        },
        {
            "buffer" : 0,
            "byteLength" : 14737,
            "byteOffset" : 71040
        },
        {
            "buffer" : 0,
            "byteLength" : 128,
            "byteOffset" : 85780
        },
        {
            "buffer" : 0,
            "byteLength" : 36216,
            "byteOffset" : 85908
        },
        {
            "buffer" : 0,
            "byteLength" : 36216,
            "byteOffset" : 122124
        },
        {
            "buffer" : 0,
            "byteLength" : 24144,
            "byteOffset" : 158340
        },
        {
            "buffer" : 0,
            "byteLength" : 48288,
            "byteOffset" : 182484
        },
        {
            "buffer" : 0,
            "byteLength" : 24144,
            "byteOffset" : 230772
        },
        {
            "buffer" : 0,
            "byteLength" : 48288,
            "byteOffset" : 254916
        },
        {
            "buffer" : 0,
            "byteLength" : 6036,
            "byteOffset" : 303204
        },
        {
            "buffer" : 0,
            "byteLength" : 80211,
            "byteOffset" : 309240
        },
        {
            "buffer" : 0,
            "byteLength" : 1440,
            "byteOffset" : 389452
        },
        {
            "buffer" : 0,
            "byteLength" : 1440,
            "byteOffset" : 390892
        },
        {
            "buffer" : 0,
            "byteLength" : 960,
            "byteOffset" : 392332
        },
        {
            "buffer" : 0,
            "byteLength" : 1920,
            "byteOffset" : 393292
        },
        {
            "buffer" : 0,
            "byteLength" : 960,
            "byteOffset" : 395212
        },
        {
            "buffer" : 0,
            "byteLength" : 1920,
            "byteOffset" : 396172
        },
        {
            "buffer" : 0,
            "byteLength" : 240,
            "byteOffset" : 398092
        },
        {
            "buffer" : 0,
            "byteLength" : 14402,
            "byteOffset" : 398332
        }
    ],
    "buffers" : [
        {
            "byteLength" : 412736,
            "uri" : "data:application/octet-stream;base64,"
        }
    ]
}
