{
    "asset" : {
        "generator" : "Khronos glTF Blender I/O v1.0.5",
        "version" : "2.0"
    },
    "scene" : 0,
    "scenes" : [
        {
            "name" : "Scene",
            "nodes" : [
                0,
                1,
                9
            ]
        }
    ],
    "nodes" : [
        {
            "name" : "Light",
            "rotation" : [
                0.16907575726509094,
                0.7558803558349609,
                -0.27217137813568115,
                0.570947527885437
            ],
            "translation" : [
                4.076245307922363,
                5.903861999511719,
                -1.0054539442062378
            ]
        },
        {
            "name" : "Camera",
            "rotation" : [
                0.483536034822464,
                0.33687159419059753,
                -0.20870360732078552,
                0.7804827094078064
            ],
            "translation" : [
                7.358891487121582,
                4.958309173583984,
                6.925790786743164
            ]
        },
        {
            "name" : "Effect",
            "translation" : [
                0,
                1.5025601387023926,
                3.9596800804138184
            ]
        },
        {
            "children" : [
                2
            ],
            "name" : "Have",
            "rotation" : [
                1,
                0,
                0,
                2.1855694143368964e-08
            ],
            "translation" : [
                0,
                0,
                3.9596800804138184
            ]
        },
        {
            "mesh" : 0,
            "name" : "case_O_OBJ_O_SORTEACHNODEShape.003",
            "skin" : 0
        },
        {
            "mesh" : 1,
            "name" : "case_O_OBJ_O_SORTEACHNODEShape.005",
            "skin" : 0
        },
        {
            "mesh" : 2,
            "name" : "groupShape1.003",
            "skin" : 0
        },
        {
            "mesh" : 3,
            "name" : "groupShape1.004",
            "skin" : 0
        },
        {
            "mesh" : 4,
            "name" : "groupShape1.005",
            "skin" : 0
        },
        {
            "children" : [
                4,
                5,
                6,
                7,
                8,
                3
            ],
            "name" : "Armature.001",
            "rotation" : [
                0.7071067094802856,
                0,
                -0.7071068286895752,
                -3.0908616110991716e-08
            ],
            "scale" : [
                0.02539999969303608,
                0.02539999969303608,
                0.02539999969303608
            ]
        }
    ],
    "materials" : [
        {
            "doubleSided" : true,
            "name" : "in2_mt.001",
            "pbrMetallicRoughness" : {
                "baseColorTexture" : {
                    "index" : 0,
                    "texCoord" : 0
                },
                "metallicFactor" : 1,
                "roughnessFactor" : 0.858578622341156
            }
        },
        {
            "doubleSided" : true,
            "name" : "in1_mt.001",
            "pbrMetallicRoughness" : {
                "baseColorTexture" : {
                    "index" : 1,
                    "texCoord" : 0
                },
                "metallicFactor" : 1,
                "roughnessFactor" : 0.858578622341156
            }
        },
        {
            "doubleSided" : true,
            "name" : "color_mt.001",
            "pbrMetallicRoughness" : {
                "baseColorTexture" : {
                    "index" : 2,
                    "texCoord" : 0
                },
                "metallicFactor" : 1,
                "roughnessFactor" : 0.858578622341156
            }
        },
        {
            "doubleSided" : true,
            "name" : "body_mt.001",
            "pbrMetallicRoughness" : {
                "baseColorTexture" : {
                    "index" : 3,
                    "texCoord" : 0
                },
                "metallicFactor" : 1,
                "roughnessFactor" : 0.858578622341156
            }
        },
        {
            "doubleSided" : true,
            "name" : "bodyemi_mt.001",
            "pbrMetallicRoughness" : {
                "baseColorTexture" : {
                    "index" : 4,
                    "texCoord" : 0
                },
                "metallicFactor" : 1,
                "roughnessFactor" : 0.858578622341156
            }
        }
    ],
    "meshes" : [
        {
            "name" : "Mesh.010",
            "primitives" : [
                {
                    "attributes" : {
                        "POSITION" : 0,
                        "NORMAL" : 1,
                        "TEXCOORD_0" : 2,
                        "COLOR_0" : 3,
                        "JOINTS_0" : 4,
                        "WEIGHTS_0" : 5
                    },
                    "indices" : 6,
                    "material" : 0
                }
            ]
        },
        {
            "name" : "Mesh.009",
            "primitives" : [
                {
                    "attributes" : {
                        "POSITION" : 8,
                        "NORMAL" : 9,
                        "TEXCOORD_0" : 10,
                        "COLOR_0" : 11,
                        "JOINTS_0" : 12,
                        "WEIGHTS_0" : 13
                    },
                    "indices" : 6,
                    "material" : 1
                }
            ]
        },
        {
            "name" : "Mesh.008",
            "primitives" : [
                {
                    "attributes" : {
                        "POSITION" : 14,
                        "NORMAL" : 15,
                        "TEXCOORD_0" : 16,
                        "COLOR_0" : 17,
                        "JOINTS_0" : 18,
                        "WEIGHTS_0" : 19
                    },
                    "indices" : 20,
                    "material" : 2
                }
            ]
        },
        {
            "name" : "Mesh.006",
            "primitives" : [
                {
                    "attributes" : {
                        "POSITION" : 21,
                        "NORMAL" : 22,
                        "TEXCOORD_0" : 23,
                        "COLOR_0" : 24,
                        "JOINTS_0" : 25,
                        "WEIGHTS_0" : 26
                    },
                    "indices" : 27,
                    "material" : 3
                }
            ]
        },
        {
            "name" : "Mesh.007",
            "primitives" : [
                {
                    "attributes" : {
                        "POSITION" : 28,
                        "NORMAL" : 29,
                        "TEXCOORD_0" : 30,
                        "COLOR_0" : 31,
                        "JOINTS_0" : 32,
                        "WEIGHTS_0" : 33
                    },
                    "indices" : 34,
                    "material" : 4
                }
            ]
        }
    ],
    "textures" : [
        {
            "source" : 0
        },
        {
            "source" : 1
        },
        {
            "source" : 0
        },
        {
            "source" : 2
        },
        {
            "source" : 1
        }
    ],
    "images" : [
        {
            "bufferView" : 7,
            "mimeType" : "image/png",
            "name" : "Bitmaptexture-Bitmaptexture"
        },
        {
            "bufferView" : 15,
            "mimeType" : "image/png",
            "name" : "Bitmaptexture-Bitmaptexture"
        },
        {
            "bufferView" : 30,
            "mimeType" : "image/png",
            "name" : "Bitmaptexture-Bitmaptexture"
        }
    ],
    "skins" : [
        {
            "inverseBindMatrices" : 7,
            "joints" : [
                3,
                2
            ],
            "name" : "Armature.001"
        }
    ],
    "accessors" : [
        {
            "bufferView" : 0,
            "componentType" : 5126,
            "count" : 1200,
            "max" : [
                0.10230613499879837,
                0.2732277810573578,
                0.10230637341737747
            ],
            "min" : [
                -0.10230635106563568,
                0.038078147917985916,
                -0.10230637341737747
            ],
            "type" : "VEC3"
        },
        {
            "bufferView" : 1,
            "componentType" : 5126,
            "count" : 1200,
            "type" : "VEC3"
        },
        {
            "bufferView" : 2,
            "componentType" : 5126,
            "count" : 1200,
            "type" : "VEC2"
        },
        {
            "bufferView" : 3,
            "componentType" : 5126,
            "count" : 1200,
            "type" : "VEC4"
        },
        {
            "bufferView" : 4,
            "componentType" : 5123,
            "count" : 1200,
            "type" : "VEC4"
        },
        {
            "bufferView" : 5,
            "componentType" : 5126,
            "count" : 1200,
            "type" : "VEC4"
        },
        {
            "bufferView" : 6,
            "componentType" : 5123,
            "count" : 1200,
            "type" : "SCALAR"
        },
        {
            "bufferView" : 8,
            "componentType" : 5126,
            "count" : 2,
            "type" : "MAT4"
        },
        {
            "bufferView" : 9,
            "componentType" : 5126,
            "count" : 1200,
            "max" : [
                0.10200946778059006,
                0.2724353075027466,
                0.10200944542884827
            ],
            "min" : [
                -0.102009616792202,
                0.0379486083984375,
                -0.10200944542884827
            ],
            "type" : "VEC3"
        },
        {
            "bufferView" : 10,
            "componentType" : 5126,
            "count" : 1200,
            "type" : "VEC3"
        },
        {
            "bufferView" : 11,
            "componentType" : 5126,
            "count" : 1200,
            "type" : "VEC2"
        },
        {
            "bufferView" : 12,
            "componentType" : 5126,
            "count" : 1200,
            "type" : "VEC4"
        },
        {
            "bufferView" : 13,
            "componentType" : 5123,
            "count" : 1200,
            "type" : "VEC4"
        },
        {
            "bufferView" : 14,
            "componentType" : 5126,
            "count" : 1200,
            "type" : "VEC4"
        },
        {
            "bufferView" : 16,
            "componentType" : 5126,
            "count" : 960,
            "max" : [
                0.09903103858232498,
                0.028103582561016083,
                0.09903103858232498
            ],
            "min" : [
                -0.09903103858232498,
                0.010544242337346077,
                -0.09903103858232498
            ],
            "type" : "VEC3"
        },
        {
            "bufferView" : 17,
            "componentType" : 5126,
            "count" : 960,
            "type" : "VEC3"
        },
        {
            "bufferView" : 18,
            "componentType" : 5126,
            "count" : 960,
            "type" : "VEC2"
        },
        {
            "bufferView" : 19,
            "componentType" : 5126,
            "count" : 960,
            "type" : "VEC4"
        },
        {
            "bufferView" : 20,
            "componentType" : 5123,
            "count" : 960,
            "type" : "VEC4"
        },
        {
            "bufferView" : 21,
            "componentType" : 5126,
            "count" : 960,
            "type" : "VEC4"
        },
        {
            "bufferView" : 22,
            "componentType" : 5123,
            "count" : 960,
            "type" : "SCALAR"
        },
        {
            "bufferView" : 23,
            "componentType" : 5126,
            "count" : 3018,
            "max" : [
                0.10060660541057587,
                0.039598606526851654,
                0.10060660541057587
            ],
            "min" : [
                -0.10060660541057587,
                -8.722274458250467e-09,
                -0.10060660541057587
            ],
            "type" : "VEC3"
        },
        {
            "bufferView" : 24,
            "componentType" : 5126,
            "count" : 3018,
            "type" : "VEC3"
        },
        {
            "bufferView" : 25,
            "componentType" : 5126,
            "count" : 3018,
            "type" : "VEC2"
        },
        {
            "bufferView" : 26,
            "componentType" : 5126,
            "count" : 3018,
            "type" : "VEC4"
        },
        {
            "bufferView" : 27,
            "componentType" : 5123,
            "count" : 3018,
            "type" : "VEC4"
        },
        {
            "bufferView" : 28,
            "componentType" : 5126,
            "count" : 3018,
            "type" : "VEC4"
        },
        {
            "bufferView" : 29,
            "componentType" : 5123,
            "count" : 3018,
            "type" : "SCALAR"
        },
        {
            "bufferView" : 31,
            "componentType" : 5126,
            "count" : 120,
            "max" : [
                0.0910249575972557,
                0.024000518023967743,
                0.091025210916996
            ],
            "min" : [
                -0.091025210916996,
                0.014099480584263802,
                -0.0910249575972557
            ],
            "type" : "VEC3"
        },
        {
            "bufferView" : 32,
            "componentType" : 5126,
            "count" : 120,
            "type" : "VEC3"
        },
        {
            "bufferView" : 33,
            "componentType" : 5126,
            "count" : 120,
            "type" : "VEC2"
        },
        {
            "bufferView" : 34,
            "componentType" : 5126,
            "count" : 120,
            "type" : "VEC4"
        },
        {
            "bufferView" : 35,
            "componentType" : 5123,
            "count" : 120,
            "type" : "VEC4"
        },
        {
            "bufferView" : 36,
            "componentType" : 5126,
            "count" : 120,
            "type" : "VEC4"
        },
        {
            "bufferView" : 37,
            "componentType" : 5123,
            "count" : 120,
            "type" : "SCALAR"
        }
    ],
    "bufferViews" : [
        {
            "buffer" : 0,
            "byteLength" : 14400,
            "byteOffset" : 0
        },
        {
            "buffer" : 0,
            "byteLength" : 14400,
            "byteOffset" : 14400
        },
        {
            "buffer" : 0,
            "byteLength" : 9600,
            "byteOffset" : 28800
        },
        {
            "buffer" : 0,
            "byteLength" : 19200,
            "byteOffset" : 38400
        },
        {
            "buffer" : 0,
            "byteLength" : 9600,
            "byteOffset" : 57600
        },
        {
            "buffer" : 0,
            "byteLength" : 19200,
            "byteOffset" : 67200
        },
        {
            "buffer" : 0,
            "byteLength" : 2400,
            "byteOffset" : 86400
        },
        {
            "buffer" : 0,
            "byteLength" : 14737,
            "byteOffset" : 88800
        },
        {
            "buffer" : 0,
            "byteLength" : 128,
            "byteOffset" : 103540
        },
        {
            "buffer" : 0,
            "byteLength" : 14400,
            "byteOffset" : 103668
        },
        {
            "buffer" : 0,
            "byteLength" : 14400,
            "byteOffset" : 118068
        },
        {
            "buffer" : 0,
            "byteLength" : 9600,
            "byteOffset" : 132468
        },
        {
            "buffer" : 0,
            "byteLength" : 19200,
            "byteOffset" : 142068
        },
        {
            "buffer" : 0,
            "byteLength" : 9600,
            "byteOffset" : 161268
        },
        {
            "buffer" : 0,
            "byteLength" : 19200,
            "byteOffset" : 170868
        },
        {
            "buffer" : 0,
            "byteLength" : 14402,
            "byteOffset" : 190068
        },
        {
            "buffer" : 0,
            "byteLength" : 11520,
            "byteOffset" : 204472
        },
        {
            "buffer" : 0,
            "byteLength" : 11520,
            "byteOffset" : 215992
        },
        {
            "buffer" : 0,
            "byteLength" : 7680,
            "byteOffset" : 227512
        },
        {
            "buffer" : 0,
            "byteLength" : 15360,
            "byteOffset" : 235192
        },
        {
            "buffer" : 0,
            "byteLength" : 7680,
            "byteOffset" : 250552
        },
        {
            "buffer" : 0,
            "byteLength" : 15360,
            "byteOffset" : 258232
        },
        {
            "buffer" : 0,
            "byteLength" : 1920,
            "byteOffset" : 273592
        },
        {
            "buffer" : 0,
            "byteLength" : 36216,
            "byteOffset" : 275512
        },
        {
            "buffer" : 0,
            "byteLength" : 36216,
            "byteOffset" : 311728
        },
        {
            "buffer" : 0,
            "byteLength" : 24144,
            "byteOffset" : 347944
        },
        {
            "buffer" : 0,
            "byteLength" : 48288,
            "byteOffset" : 372088
        },
        {
            "buffer" : 0,
            "byteLength" : 24144,
            "byteOffset" : 420376
        },
        {
            "buffer" : 0,
            "byteLength" : 48288,
            "byteOffset" : 444520
        },
        {
            "buffer" : 0,
            "byteLength" : 6036,
            "byteOffset" : 492808
        },
        {
            "buffer" : 0,
            "byteLength" : 80211,
            "byteOffset" : 498844
        },
        {
            "buffer" : 0,
            "byteLength" : 1440,
            "byteOffset" : 579056
        },
        {
            "buffer" : 0,
            "byteLength" : 1440,
            "byteOffset" : 580496
        },
        {
            "buffer" : 0,
            "byteLength" : 960,
            "byteOffset" : 581936
        },
        {
            "buffer" : 0,
            "byteLength" : 1920,
            "byteOffset" : 582896
        },
        {
            "buffer" : 0,
            "byteLength" : 960,
            "byteOffset" : 584816
        },
        {
            "buffer" : 0,
            "byteLength" : 1920,
            "byteOffset" : 585776
        },
        {
            "buffer" : 0,
            "byteLength" : 240,
            "byteOffset" : 587696
        }
    ],
    "buffers" : [
        {
            "byteLength" : 587936,
            "uri" : "data:application/octet-stream;base64,"
        }
    ]
}
