{"accessors":[{"name":"object_4BA6D4_1_positions","componentType":5126,"count":54,"min":[-1.4799989461898804,-3.4000000953674316,-1.4799989461898804],"max":[1.4800000190734863,3.4000000953674316,1.4799989461898804],"type":"VEC3","bufferView":0,"byteOffset":0},{"name":"object_4BA6D4_1_normals","componentType":5126,"count":54,"min":[-0.9932640194892883,-0.9999998807907104,-0.9932640194892883],"max":[0.9932640194892883,0.9999998807907104,0.9932640194892883],"type":"VEC3","bufferView":0,"byteOffset":648},{"name":"object_4BA6D4_1_texcoords","componentType":5126,"count":54,"min":[0,1],"max":[1,2],"type":"VEC2","bufferView":1,"byteOffset":0},{"name":"object_4BA6D4_1_0_indices","componentType":5123,"count":120,"min":[0],"max":[53],"type":"SCALAR","bufferView":2,"byteOffset":0}],"asset":{"generator":"obj2gltf","version":"2.0"},"buffers":[{"name":"EmeraldPiece","byteLength":3004,"uri":"data:application/octet-stream;base64,"}],"bufferViews":[{"name":"bufferView_0","buffer":0,"byteLength":1296,"byteOffset":0,"byteStride":12,"target":34962},{"name":"bufferView_1","buffer":0,"byteLength":432,"byteOffset":1296,"byteStride":8,"target":34962},{"name":"bufferView_2","buffer":0,"byteLength":240,"byteOffset":1728,"target":34963},{"buffer":0,"byteOffset":1968,"byteLength":1035}],"images":[{"name":"ref_eme","mimeType":"image/png","bufferView":3}],"materials":[{"name":"material_4BA30C","pbrMetallicRoughness":{"baseColorTexture":{"index":0},"baseColorFactor":[1,1,1,0.8],"metallicFactor":0,"roughnessFactor":1},"emissiveFactor":[0,0,0],"alphaMode":"BLEND","doubleSided":true}],"meshes":[{"name":"object_4BA6D4_1","primitives":[{"attributes":{"POSITION":0,"NORMAL":1,"TEXCOORD_0":2},"indices":3,"material":0,"mode":4}]}],"nodes":[{"name":"object_4BA6D4","mesh":0}],"samplers":[{"magFilter":9729,"minFilter":9986,"wrapS":10497,"wrapT":10497}],"scene":0,"scenes":[{"nodes":[0]}],"textures":[{"name":"ref_eme","sampler":0,"source":0}]}
