{"accessors":[{"name":"1_1_positions","componentType":5126,"count":276,"min":[-8.388541221618652,-0.636506974697113,-12.59780502319336],"max":[7.380912780761719,23.636760711669922,2.6596839427948],"type":"VEC3","bufferView":0,"byteOffset":0},{"name":"1_1_normals","componentType":5126,"count":276,"min":[-0.9860649704933167,-0.9476580023765564,-0.983551025390625],"max":[0.9864630103111267,0.9914339780807495,0.9908549785614014],"type":"VEC3","bufferView":0,"byteOffset":24480},{"name":"1_1_texcoords","componentType":5126,"count":276,"min":[0,0.011760000139474869],"max":[0.98430997133255,1],"type":"VEC2","bufferView":1,"byteOffset":0},{"name":"1_1_0_indices","componentType":5123,"count":276,"min":[0],"max":[275],"type":"SCALAR","bufferView":2,"byteOffset":0},{"name":"2_1_positions","componentType":5126,"count":480,"min":[-11.404966354370117,17.623184204101562,-3.8779969215393066],"max":[5.772974014282227,27.0383358001709,10.498245239257812],"type":"VEC3","bufferView":0,"byteOffset":3312},{"name":"2_1_normals","componentType":5126,"count":480,"min":[-0.9899880290031433,-0.9833899736404419,-0.9391769766807556],"max":[0.91730797290802,0.9874780178070068,0.9890069961547852],"type":"VEC3","bufferView":0,"byteOffset":27792},{"name":"2_1_texcoords","componentType":5126,"count":480,"min":[0.04193900153040886,0.7859879732131958],"max":[0.38576599955558777,0.9687709808349609],"type":"VEC2","bufferView":1,"byteOffset":2208},{"name":"2_1_0_indices","componentType":5123,"count":480,"min":[0],"max":[479],"type":"SCALAR","bufferView":2,"byteOffset":552},{"name":"3_1_positions","componentType":5126,"count":522,"min":[-11.151007652282715,7.920791149139404,-3.106342077255249],"max":[6.6707987785339355,28.690248489379883,11.858144760131836],"type":"VEC3","bufferView":0,"byteOffset":9072},{"name":"3_1_normals","componentType":5126,"count":522,"min":[-0.9963099956512451,-0.9806020259857178,-0.9895139932632446],"max":[0.9725049734115601,0.9762780070304871,0.9789260029792786],"type":"VEC3","bufferView":0,"byteOffset":33552},{"name":"3_1_texcoords","componentType":5126,"count":522,"min":[0,0.011760000139474869],"max":[0.98430997133255,0.9960799813270569],"type":"VEC2","bufferView":1,"byteOffset":6048},{"name":"3_1_0_indices","componentType":5123,"count":522,"min":[0],"max":[521],"type":"SCALAR","bufferView":2,"byteOffset":1512},{"name":"4_1_positions","componentType":5126,"count":372,"min":[-17.717327117919922,12.45572566986084,-8.406461715698242],"max":[4.776364803314209,38.81455612182617,12.59781265258789],"type":"VEC3","bufferView":0,"byteOffset":15336},{"name":"4_1_normals","componentType":5126,"count":372,"min":[-0.9950699806213379,-0.996766984462738,-0.9889649748802185],"max":[0.9939500093460083,0.992995023727417,0.9832770228385925],"type":"VEC3","bufferView":0,"byteOffset":39816},{"name":"4_1_texcoords","componentType":5126,"count":372,"min":[0,-1],"max":[5.003920078277588,1],"type":"VEC2","bufferView":1,"byteOffset":10224},{"name":"4_1_0_indices","componentType":5123,"count":372,"min":[0],"max":[371],"type":"SCALAR","bufferView":2,"byteOffset":2556},{"name":"6_1_positions","componentType":5126,"count":66,"min":[-7.792333126068115,13.58586597442627,-1.5707190036773682],"max":[3.9494659900665283,22.673603057861328,1.1544469594955444],"type":"VEC3","bufferView":0,"byteOffset":19800},{"name":"6_1_normals","componentType":5126,"count":66,"min":[-0.7441660165786743,-0.7446680068969727,-0.9444460272789001],"max":[0.5361409783363342,0.7139599919319153,0.9797490239143372],"type":"VEC3","bufferView":0,"byteOffset":44280},{"name":"6_1_texcoords","componentType":5126,"count":66,"min":[0,0.011760000139474869],"max":[0.98430997133255,0.8588200211524963],"type":"VEC2","bufferView":1,"byteOffset":13200},{"name":"6_1_0_indices","componentType":5123,"count":66,"min":[0],"max":[65],"type":"SCALAR","bufferView":2,"byteOffset":3300},{"name":"7_1_positions","componentType":5126,"count":36,"min":[-15.663580894470215,20.789627075195312,2.70510196685791],"max":[4.637077808380127,33.466766357421875,12.478515625],"type":"VEC3","bufferView":0,"byteOffset":20592},{"name":"7_1_normals","componentType":5126,"count":36,"min":[-0.9899880290031433,-0.5365020036697388,-0.0883369967341423],"max":[0.9292250275611877,0.6583799719810486,0.9813100099563599],"type":"VEC3","bufferView":0,"byteOffset":45072},{"name":"7_1_texcoords","componentType":5126,"count":36,"min":[-1,0.011760000139474869],"max":[1.0078400373458862,0.9960799813270569],"type":"VEC2","bufferView":1,"byteOffset":13728},{"name":"7_1_0_indices","componentType":5123,"count":36,"min":[0],"max":[35],"type":"SCALAR","bufferView":2,"byteOffset":3432},{"name":"8_1_positions","componentType":5126,"count":78,"min":[-4.666955947875977,5.368758201599121,-3.771368980407715],"max":[4.024669170379639,9.208907127380371,0.42158201336860657],"type":"VEC3","bufferView":0,"byteOffset":21024},{"name":"8_1_normals","componentType":5126,"count":78,"min":[-0.9823619723320007,-0.39517098665237427,-0.9282379746437073],"max":[0.9006369709968567,0.9588850140571594,0.9452940225601196],"type":"VEC3","bufferView":0,"byteOffset":45504},{"name":"8_1_texcoords","componentType":5126,"count":78,"min":[0.05098000168800354,0.4431400001049042],"max":[0.8235300183296204,0.6627500057220459],"type":"VEC2","bufferView":1,"byteOffset":14016},{"name":"8_1_0_indices","componentType":5123,"count":78,"min":[0],"max":[77],"type":"SCALAR","bufferView":2,"byteOffset":3504},{"name":"shoe_1_positions","componentType":5126,"count":162,"min":[-5.273921012878418,0.2827320098876953,-6.015419006347656],"max":[6.026569843292236,7.971744060516357,3.445167064666748],"type":"VEC3","bufferView":0,"byteOffset":21960},{"name":"shoe_1_normals","componentType":5126,"count":162,"min":[-0.9145309925079346,-0.9960169792175293,-0.7575230002403259],"max":[0.914156973361969,0.9962369799613953,0.9250029921531677],"type":"VEC3","bufferView":0,"byteOffset":46440},{"name":"shoe_1_texcoords","componentType":5126,"count":162,"min":[0.04196299985051155,0.1578959971666336],"max":[0.5307869911193848,0.9484869837760925],"type":"VEC2","bufferView":1,"byteOffset":14640},{"name":"shoe_1_0_indices","componentType":5123,"count":162,"min":[0],"max":[161],"type":"SCALAR","bufferView":2,"byteOffset":3660},{"name":"shoebottom_1_positions","componentType":5126,"count":48,"min":[-5.273921012878418,0.2827320098876953,-6.015419006347656],"max":[6.026569843292236,4.161942005157471,3.445167064666748],"type":"VEC3","bufferView":0,"byteOffset":23904},{"name":"shoebottom_1_normals","componentType":5126,"count":48,"min":[-0.8721290230751038,-0.9522550106048584,-0.37051498889923096],"max":[0.914156973361969,-0.4013789892196655,0.6558359861373901],"type":"VEC3","bufferView":0,"byteOffset":48384},{"name":"shoebottom_1_texcoords","componentType":5126,"count":48,"min":[0.03720900043845177,0.7870789766311646],"max":[0.39069700241088867,0.9583740234375],"type":"VEC2","bufferView":1,"byteOffset":15936},{"name":"shoebottom_1_0_indices","componentType":5123,"count":48,"min":[0],"max":[47],"type":"SCALAR","bufferView":2,"byteOffset":3984}],"asset":{"generator":"obj2gltf","version":"2.0"},"buffers":[{"name":"tailsdoll","byteLength":105660,"uri":"data:application/octet-stream;base64,"}],"bufferViews":[{"name":"bufferView_0","buffer":0,"byteLength":48960,"byteOffset":0,"byteStride":12,"target":34962},{"name":"bufferView_1","buffer":0,"byteLength":16320,"byteOffset":48960,"byteStride":8,"target":34962},{"name":"bufferView_2","buffer":0,"byteLength":4080,"byteOffset":65280,"target":34963},{"buffer":0,"byteOffset":69360,"byteLength":8998},{"buffer":0,"byteOffset":78358,"byteLength":204},{"buffer":0,"byteOffset":78562,"byteLength":9602},{"buffer":0,"byteOffset":88164,"byteLength":7798},{"buffer":0,"byteOffset":95962,"byteLength":9075},{"buffer":0,"byteOffset":105037,"byteLength":226},{"buffer":0,"byteOffset":105263,"byteLength":394}],"images":[{"name":"bdb8b042","mimeType":"image/png","bufferView":3},{"name":"6a90f22f","mimeType":"image/png","bufferView":4},{"name":"b1723388","mimeType":"image/png","bufferView":5},{"name":"77d820a7","mimeType":"image/png","bufferView":6},{"name":"7c9d31c6","mimeType":"image/png","bufferView":7},{"name":"920eb526","mimeType":"image/png","bufferView":8},{"name":"8ef81048","mimeType":"image/png","bufferView":9}],"materials":[{"name":"tail","pbrMetallicRoughness":{"baseColorTexture":{"index":0},"baseColorFactor":[1,1,1,1],"metallicFactor":0,"roughnessFactor":1},"emissiveFactor":[0,0,0],"alphaMode":"OPAQUE","doubleSided":false},{"name":"colors","pbrMetallicRoughness":{"baseColorTexture":{"index":1},"baseColorFactor":[1,1,1,1],"metallicFactor":0,"roughnessFactor":1},"emissiveFactor":[0,0,0],"alphaMode":"OPAQUE","doubleSided":false},{"name":"fur","pbrMetallicRoughness":{"baseColorTexture":{"index":2},"baseColorFactor":[1,1,1,1],"metallicFactor":0,"roughnessFactor":1},"emissiveFactor":[0,0,0],"alphaMode":"OPAQUE","doubleSided":false},{"name":"whitefur","pbrMetallicRoughness":{"baseColorTexture":{"index":3},"baseColorFactor":[1,1,1,1],"metallicFactor":0,"roughnessFactor":1},"emissiveFactor":[0,0,0],"alphaMode":"OPAQUE","doubleSided":false},{"name":"eye","pbrMetallicRoughness":{"baseColorTexture":{"index":4},"baseColorFactor":[1,1,1,1],"metallicFactor":0,"roughnessFactor":1},"emissiveFactor":[0,0,0],"alphaMode":"OPAQUE","doubleSided":false},{"name":"shoeend","pbrMetallicRoughness":{"baseColorTexture":{"index":5},"baseColorFactor":[1,1,1,1],"metallicFactor":0,"roughnessFactor":1},"emissiveFactor":[0,0,0],"alphaMode":"OPAQUE","doubleSided":false},{"name":"shoe","pbrMetallicRoughness":{"baseColorTexture":{"index":6},"baseColorFactor":[1,1,1,1],"metallicFactor":0,"roughnessFactor":1},"emissiveFactor":[0,0,0],"alphaMode":"OPAQUE","doubleSided":false}],"meshes":[{"name":"1_1","primitives":[{"attributes":{"POSITION":0,"NORMAL":1,"TEXCOORD_0":2},"indices":3,"material":0,"mode":4}]},{"name":"2_1","primitives":[{"attributes":{"POSITION":4,"NORMAL":5,"TEXCOORD_0":6},"indices":7,"material":1,"mode":4}]},{"name":"3_1","primitives":[{"attributes":{"POSITION":8,"NORMAL":9,"TEXCOORD_0":10},"indices":11,"material":1,"mode":4}]},{"name":"4_1","primitives":[{"attributes":{"POSITION":12,"NORMAL":13,"TEXCOORD_0":14},"indices":15,"material":2,"mode":4}]},{"name":"6_1","primitives":[{"attributes":{"POSITION":16,"NORMAL":17,"TEXCOORD_0":18},"indices":19,"material":3,"mode":4}]},{"name":"7_1","primitives":[{"attributes":{"POSITION":20,"NORMAL":21,"TEXCOORD_0":22},"indices":23,"material":4,"mode":4}]},{"name":"8_1","primitives":[{"attributes":{"POSITION":24,"NORMAL":25,"TEXCOORD_0":26},"indices":27,"material":5,"mode":4}]},{"name":"shoe_1","primitives":[{"attributes":{"POSITION":28,"NORMAL":29,"TEXCOORD_0":30},"indices":31,"material":6,"mode":4}]},{"name":"shoebottom_1","primitives":[{"attributes":{"POSITION":32,"NORMAL":33,"TEXCOORD_0":34},"indices":35,"material":5,"mode":4}]}],"nodes":[{"name":"1","mesh":0},{"name":"2","mesh":1},{"name":"3","mesh":2},{"name":"4","mesh":3},{"name":"6","mesh":4},{"name":"7","mesh":5},{"name":"8","mesh":6},{"name":"shoe","mesh":7},{"name":"shoebottom","mesh":8}],"samplers":[{"magFilter":9729,"minFilter":9986,"wrapS":10497,"wrapT":10497}],"scene":0,"scenes":[{"nodes":[0,1,2,3,4,5,6,7,8]}],"textures":[{"name":"bdb8b042","sampler":0,"source":0},{"name":"6a90f22f","sampler":0,"source":1},{"name":"b1723388","sampler":0,"source":2},{"name":"77d820a7","sampler":0,"source":3},{"name":"7c9d31c6","sampler":0,"source":4},{"name":"920eb526","sampler":0,"source":5},{"name":"8ef81048","sampler":0,"source":6}]}
